<svg width="196" height="373" viewBox="0 0 196 373" fill="none" xmlns="http://www.w3.org/2000/svg">
<path d="M152.639 270.833C166.672 254.099 166.065 227.551 161.413 204.999C156.81 182.719 150.289 160.263 140.124 140.444C130.263 121.216 118.978 109.533 99.5751 105.745C75.2649 101.014 61.4395 119.09 51.1305 143.065C41.0292 166.56 37.3691 190.886 30.5124 215.18C24.6945 235.799 27.7633 255.41 43.5385 271.84C68.2164 297.525 128.952 299.091 152.639 270.817V270.833Z" fill="#E6710B"/>
<path d="M159.558 196.479C160.213 199.324 160.837 202.169 161.412 204.998C166.063 227.55 166.671 254.082 152.637 270.832C128.951 299.09 68.2151 297.54 43.5373 271.855C27.746 255.425 24.6773 235.814 30.5111 215.195C31.7418 210.816 32.8766 206.437 33.9634 202.073C50.6497 210.145 68.7745 215.627 87.7463 218.344C113.895 222.532 140.826 214.045 159.574 196.495L159.558 196.479Z" fill="#CF560A"/>
<path d="M50.7132 215.196C51.8959 223.139 50.6333 233.624 42.1623 233.321C41.9065 233.321 41.6828 233.305 41.443 233.273C37.8469 217.897 32.3167 188.169 51.0009 191.541C59.7596 193.123 60.7346 206.629 62.3009 213.725C62.8443 216.139 63.3558 218.552 63.8832 220.966C58.8166 228.43 55.1565 218.488 50.7132 215.196Z" fill="#E6710B"/>
<path d="M53.8144 279.08C49.515 266.262 46.1585 253.14 43.0738 239.986C42.7062 238.42 42.1148 236.086 41.4595 233.273C41.6993 233.305 41.939 233.337 42.1787 233.321C50.6498 233.625 51.9124 223.14 50.7297 215.196C55.173 218.489 58.8331 228.43 63.8997 220.966C65.5779 228.606 67.2561 236.23 68.9184 243.87C72.051 258.335 75.1837 272.799 78.2844 287.264C78.2844 287.264 80.586 315.426 66.7287 304.797C59.5843 299.315 56.5155 287.136 53.8144 279.065V279.08Z" fill="#803F21"/>
<path d="M132.516 212.719C129.079 219.975 122.223 227.999 115.334 223.044C115.126 222.916 114.934 222.756 114.759 222.596C120.305 207.812 132.212 180.018 145.878 193.204C152.287 199.389 145.59 211.153 142.953 217.929C142.058 220.231 141.147 222.532 140.252 224.834C131.892 228.222 134.37 217.929 132.5 212.719H132.516Z" fill="#E6710B"/>
<path d="M99.606 267.572C103.154 254.53 107.661 241.744 112.376 229.101C112.936 227.599 113.735 225.329 114.758 222.612C114.934 222.772 115.125 222.916 115.333 223.059C122.206 228.014 129.079 219.991 132.515 212.734C134.385 217.945 131.908 228.238 140.267 224.849C137.422 232.138 134.577 239.41 131.716 246.682C126.298 260.46 120.863 274.221 115.397 287.983C115.397 287.983 101.668 312.692 96.0577 296.15C93.1648 287.615 97.3843 275.787 99.606 267.588V267.572Z" fill="#803F21"/>
<path d="M99.5744 105.744C118.978 109.532 130.262 121.216 140.123 140.443C148.994 157.737 155.1 177.044 159.559 196.48C140.811 214.029 113.879 222.516 87.731 218.329C68.7592 215.611 50.6344 210.129 33.9481 202.058C38.8868 182.159 42.8347 162.324 51.1139 143.064C61.4229 119.074 75.2483 100.997 99.5585 105.744H99.5744Z" fill="#E6710B"/>
<path d="M60.0159 168.318C60.7831 177.204 62.2056 188.744 62.0617 188.888C66.2333 184.924 70.3889 180.96 74.5605 176.997C78.5722 193.06 82.5839 209.123 86.5957 225.186C103.522 212.319 115.445 193.028 119.361 172.122C122.733 177.748 126.106 183.39 129.462 189.016C138.061 166.144 140.123 143.592 119.776 127.801C99.8776 112.361 84.2142 120.513 70.4049 138.254C64.9387 145.286 61.4384 149.33 59.6323 158.632C59.3925 159.895 59.6163 163.763 59.9999 168.318H60.0159Z" fill="#E6D3A3"/>
<path d="M64.6834 145.958C87.3793 150.673 110.363 150.625 131.429 141.483C138.589 155.42 135.824 172.138 129.463 189.016C126.09 183.374 122.718 177.748 119.361 172.106C115.445 193.012 103.522 212.304 86.5961 225.17C82.5844 209.107 78.5726 193.044 74.5609 176.981C70.3893 180.945 66.2337 184.909 62.0621 188.872C62.206 188.729 60.7995 177.189 60.0163 168.302C59.6167 163.747 59.393 159.879 59.6487 158.616C60.7196 153.118 62.3818 149.458 64.6834 145.942V145.958Z" fill="#E6D3A3"/>
<path d="M64.6828 145.957C66.2811 143.512 68.1831 141.13 70.4208 138.269C84.2301 120.528 99.8775 112.377 119.792 127.816C125.115 131.956 128.887 136.543 131.428 141.498C110.362 150.64 87.3788 150.688 64.6828 145.973V145.957Z" fill="#CCBB91"/>
<path d="M131.541 47.2938C133.091 48.7483 134.721 50.1228 136.415 51.3855C141.945 55.557 148.195 58.7537 154.828 60.7356C157.449 61.5347 160.134 62.1421 162.867 62.5576C178.834 46.6385 183.581 20.5222 174.215 0C151.264 4.92278 133.538 23.9106 131.525 47.2938H131.541Z" fill="#E6710B"/>
<path d="M136.415 51.3855C141.946 55.5571 148.195 58.7537 154.828 60.7356C155.244 60.4319 155.643 60.0483 156.011 59.6328C165.025 49.3397 168.43 33.8681 164.626 20.4104C151.232 25.7647 141.019 37.1287 136.415 51.3855Z" fill="#803F21"/>
<path d="M61.8861 47.2938C60.3357 48.7483 58.7055 50.1228 57.0113 51.3855C51.4811 55.557 45.2318 58.7537 38.5988 60.7356C35.9776 61.5347 33.2924 62.1421 30.5593 62.5576C14.5763 46.6385 9.84532 20.5222 19.1954 0C42.147 4.92278 59.8722 23.9106 61.8861 47.2938Z" fill="#E6710B"/>
<path d="M57.0112 51.3855C51.481 55.5571 45.2317 58.7537 38.5987 60.7356C38.1832 60.4319 37.7836 60.0483 37.416 59.6328C28.4015 49.3397 24.9972 33.8681 28.8011 20.4104C42.1949 25.7647 52.4081 37.1287 57.0112 51.3855Z" fill="#803F21"/>
<path d="M0 108.685C60.32 139.548 135.217 140.123 196 110.203C183.453 66.7293 144.886 26.5799 99.6542 26.7717C54.4063 26.9635 12.1791 65.115 0 108.685Z" fill="#F18628"/>
<path d="M0 108.685C60.32 139.549 135.217 140.124 196 110.204C196 110.204 128.168 23.8474 102.228 123.709L91.9344 122.287C91.9344 122.287 78.4448 12.7232 0 108.685Z" fill="#E6D3A3"/>
<path d="M83.4955 123.406C85.7012 119.986 95.0033 120.689 97.9921 120.833C100.789 120.977 108.461 121.249 110.251 123.742C114.519 129.688 102.212 136.273 97.8643 136.177C94.5078 136.113 91.2633 134.642 88.69 132.533C87.0118 131.158 82.5845 126.907 83.064 124.429C83.1439 124.046 83.2717 123.71 83.4795 123.39L83.4955 123.406Z" fill="#982626"/>
<path d="M91.0719 124.796C92.2067 123.166 93.9329 123.246 95.7709 123.102C97.7368 122.958 100.246 122.798 101.876 124.061C102.628 124.636 103.011 126.107 101.876 126.586C100.31 127.257 98.7917 127.082 97.1135 127.114C95.3074 127.146 93.2296 128.041 91.6313 126.986C90.96 126.538 90.5445 125.547 91.0559 124.812L91.0719 124.796Z" fill="#AB2B2B"/>
<path d="M131.348 93.1181C133.139 90.7686 135.952 90.7686 137.742 93.1181C139.02 94.7963 138.765 97.897 138.717 99.9428C138.685 101.317 137.965 102.932 136.655 103.555C135.088 104.274 134.002 104.274 132.435 103.555C131.109 102.948 130.405 101.317 130.373 99.9428C130.326 97.897 130.07 94.7963 131.348 93.1181Z" fill="#803F21"/>
<path d="M58.6893 93.1181C60.4794 90.7686 63.2924 90.7686 65.0825 93.1181C66.3611 94.7963 66.1054 97.897 66.0575 99.9428C66.0255 101.317 65.3063 102.932 63.9956 103.555C62.4293 104.274 61.3425 104.274 59.7761 103.555C58.4495 102.948 57.7463 101.317 57.7143 99.9428C57.6664 97.897 57.4106 94.7963 58.6893 93.1181Z" fill="#803F21"/>
<path d="M102.882 74.4169C103.026 73.2821 103.17 72.1313 103.41 70.9965C103.586 70.1175 105.04 70.3093 104.992 71.2043C104.928 72.419 104.752 73.6497 104.609 74.8644C104.497 75.7914 104.545 76.8623 103.777 77.5016C103.522 77.7254 103.186 77.6774 102.994 77.4057C102.387 76.5427 102.77 75.3919 102.898 74.4169H102.882Z" fill="#F1B480"/>
<path d="M89.5371 74.642C89.5371 73.2994 89.5371 71.9408 89.6969 70.5982C89.7928 69.7352 90.9436 69.7352 91.0555 70.5982C91.1994 71.765 91.1994 72.9478 91.2153 74.1305C91.2153 75.2493 91.4391 76.464 90.8957 77.471C90.6879 77.8545 90.0646 77.8545 89.8568 77.471C89.3773 76.5919 89.5371 75.6329 89.5371 74.642Z" fill="#F1B480"/>
<path d="M98.4876 88.8343C98.4876 87.7314 98.5036 86.6286 98.6314 85.5258C98.7433 84.6307 99.9261 84.6307 100.038 85.5258C100.166 86.6286 100.182 87.7314 100.182 88.8343C100.182 89.6814 100.422 90.6883 99.7023 91.2637C99.4626 91.4555 99.2228 91.4555 98.9831 91.2637C98.2638 90.6883 98.5036 89.6814 98.5036 88.8343H98.4876Z" fill="#F1B480"/>
<path d="M116.42 70.7249C116.643 69.6221 116.883 68.5193 117.187 67.4324C117.411 66.6493 118.737 66.7771 118.641 67.6242C118.514 68.6791 118.354 69.718 118.146 70.7569C117.97 71.7319 117.938 72.7068 117.299 73.49C116.963 73.8896 116.324 73.6339 116.196 73.2023C115.94 72.3712 116.244 71.5561 116.42 70.7249Z" fill="#F1B480"/>
<path d="M110.011 60.6557C110.203 59.4091 110.49 58.1943 111.114 57.0915C111.481 56.4362 112.328 56.9157 112.233 57.555C112.073 58.6099 111.817 59.6328 111.641 60.6877C111.497 61.5508 111.673 62.5577 111.002 63.197C110.81 63.3729 110.474 63.4048 110.283 63.197C109.643 62.4778 109.883 61.5348 110.011 60.6397V60.6557Z" fill="#F1B480"/>
<path d="M108.237 88.7702C108.62 87.9231 109.084 87.1079 109.627 86.3567C110.091 85.7174 111.225 86.069 110.97 86.9321C110.73 87.7313 110.394 88.4985 110.027 89.2497C109.755 89.7931 109.323 90.6881 108.54 90.4164C107.821 90.1607 107.997 89.3136 108.237 88.7862V88.7702Z" fill="#F1B480"/>
<path d="M86.4045 85.6533C86.9798 86.7082 87.5712 88.1307 87.6351 89.3294C87.6831 90.1126 86.6122 90.3204 86.2286 89.713C85.5893 88.6901 85.2856 87.1717 85.1578 85.989C85.0779 85.3017 86.1008 85.0939 86.4045 85.6533Z" fill="#F1B480"/>
<path d="M96.8572 56.564C97.1129 56.1804 97.7363 56.2124 97.8641 56.6919C98.024 57.2992 97.976 57.9066 97.944 58.5299C97.9281 59.3291 97.976 60.1123 97.992 60.9114C97.992 62.0622 96.4097 61.9823 96.2658 60.9114C96.09 59.6008 96.074 57.6988 96.8412 56.564H96.8572Z" fill="#F1B480"/>
<path d="M81.3697 57.5074C81.4656 56.8841 82.5205 56.9001 82.6164 57.5074C82.7762 58.5144 82.9041 59.5213 83.1438 60.5122C83.3516 61.3753 83.7352 62.1265 83.4475 63.0056C83.3676 63.2453 83.1279 63.3253 82.9201 63.2294C81.1619 62.3982 81.13 59.1537 81.3697 57.5234V57.5074Z" fill="#F1B480"/>
<path d="M107.405 50.4416C107.533 49.6105 107.645 48.7314 107.901 47.9163C108.141 47.1171 109.371 47.261 109.371 48.1081C109.371 49.0351 109.195 49.9781 109.052 50.8891C108.988 51.3526 108.412 51.5924 108.013 51.4805C107.533 51.3526 107.357 50.8891 107.421 50.4416H107.405Z" fill="#F1B480"/>
<path d="M121.359 52.8403C121.934 52.2489 122.781 53.0001 122.445 53.6714C121.87 54.8382 121.407 55.973 121.151 57.2516C120.943 58.3545 119.361 57.859 119.505 56.8041C119.712 55.3337 120.32 53.9112 121.359 52.8403Z" fill="#F1B480"/>
<path d="M86.0364 52.1692C86.2122 51.0664 86.4999 50.0115 86.7556 48.9407C86.9474 48.1255 88.3219 48.2854 88.242 49.1484C88.1621 50.0914 88.0982 51.0185 87.9703 51.9455C87.8424 52.8725 87.9064 53.9274 87.0433 54.4708C86.8035 54.6146 86.4199 54.5987 86.2281 54.3589C85.6528 53.6557 85.8765 53.0323 86.0204 52.1692H86.0364Z" fill="#F1B480"/>
<path d="M80.714 236.245C95.8979 228.909 115.621 232.074 131.844 228.382C139.372 226.672 148.85 224.53 153.725 217.865C156.314 214.317 161.94 193.938 158.935 192.771C176.452 199.516 189.942 224.865 191.492 242.527C194.753 279.815 167.614 298.276 134.817 303.086C115.141 305.979 83.9745 304.301 68.3591 318.382C54.9014 330.513 44.9439 355.703 40.133 372.485C21.353 365.756 10.6443 344.083 9.86115 324.152C9.17388 306.699 16.1585 289.677 26.947 275.835C28.4814 273.853 30.1117 271.935 31.8059 270.097C45.2956 255.409 62.765 244.924 80.73 236.229L80.714 236.245Z" fill="#F18628"/>
<path d="M119.521 284.674C147.172 276.267 175.845 260.524 190.134 234.743C190.789 237.444 191.253 240.066 191.461 242.527C194.721 279.815 167.582 298.276 134.785 303.087C115.11 305.98 83.9428 304.301 68.3273 318.382C54.8696 330.514 44.9122 355.703 40.1013 372.485C21.3212 365.756 10.6126 344.083 9.82941 324.152C9.31795 311.078 13.1059 298.244 19.5791 286.816C51.5931 295.75 86.9955 294.552 119.505 284.658L119.521 284.674Z" fill="#E6710B"/>
<path d="M31.8056 270.113C45.2953 255.425 62.7647 244.94 80.7297 236.245C95.9136 228.909 115.637 232.074 131.859 228.382C139.387 226.672 148.865 224.53 153.74 217.865C156.329 214.317 161.955 193.938 158.951 192.771C174.023 198.573 186.106 218.137 190.166 234.743C175.877 260.524 147.203 276.251 119.552 284.674C87.043 294.567 51.6405 295.766 19.6265 286.832C21.8002 282.996 24.2616 279.32 26.9787 275.851C28.5131 273.869 30.1434 271.951 31.8376 270.113H31.8056Z" fill="#F18628"/>
<path d="M9.84471 324.168C9.15744 306.714 16.142 289.693 26.9306 275.851C29.7915 274.716 32.7484 273.773 35.7532 273.054C28.5129 283.811 26.5789 297.972 30.6386 310.295C36.4884 303.31 44.6877 298.355 53.5903 296.389C47.1171 303.662 45.0394 314.562 48.3638 323.704C55.9078 316.368 66.5206 312.325 77.0214 312.708C59.6159 328.819 46.6377 349.693 40.1166 372.517C21.3365 365.788 10.6279 344.115 9.84471 324.184V324.168Z" fill="#E6D3A3"/>
<path d="M108.941 238.227C109.772 238.899 110.923 238.755 111.946 238.803C113.065 238.851 114.199 238.851 115.318 238.723C115.974 238.659 115.846 237.764 115.286 237.652C114.104 237.38 112.905 237.284 111.706 237.189C110.699 237.109 109.788 236.933 108.909 237.492C108.637 237.668 108.733 238.068 108.941 238.243V238.227Z" fill="#F1B480"/>
<path d="M91.854 242.144C92.8129 242.351 93.5641 241.936 94.4912 241.68C95.61 241.36 96.7448 241.169 97.8956 241.057C98.7427 240.977 98.7107 239.57 97.8636 239.57C96.6329 239.57 95.4342 239.682 94.2354 239.954C93.1965 240.194 92.1097 240.449 91.5343 241.408C91.3425 241.728 91.5183 242.064 91.8699 242.144H91.854Z" fill="#F1B480"/>
<path d="M75.7914 248.297C77.2459 248.169 78.6204 247.402 79.963 246.858C81.4974 246.235 82.9998 245.596 84.4862 244.876C85.2214 244.525 84.726 243.502 83.9748 243.742C82.4084 244.253 80.8581 244.828 79.3077 245.42C77.9492 245.947 76.4627 246.331 75.312 247.242C74.8165 247.625 75.232 248.345 75.7914 248.281V248.297Z" fill="#F1B480"/>
<path d="M62.8446 254.083C63.5319 254.386 64.0434 253.875 64.6028 253.491C65.4339 252.932 66.265 252.372 67.0801 251.797C67.7195 251.334 67.0162 250.183 66.3289 250.614C65.6097 251.062 64.8905 251.509 64.1872 251.973C63.5639 252.388 62.541 252.756 62.541 253.619C62.541 253.843 62.6369 254.003 62.8286 254.099L62.8446 254.083Z" fill="#F1B480"/>
<path d="M101.604 244.349C102.324 244.956 103.41 244.493 104.242 244.381C105.36 244.221 106.495 244.253 107.614 244.093C108.125 244.013 108.205 243.278 107.71 243.102C106.639 242.719 105.488 242.703 104.369 242.734C103.394 242.766 101.86 242.766 101.429 243.805C101.349 244.013 101.429 244.221 101.604 244.365V244.349Z" fill="#F1B480"/>
<path d="M87.9226 249.4C88.5619 249.528 89.2811 249.208 89.9045 249.096C90.5917 248.984 91.295 248.952 91.9823 248.92C92.7494 248.873 92.6216 247.786 91.9503 247.658C91.1991 247.514 90.4319 247.53 89.6647 247.594C88.9774 247.658 88.0664 247.738 87.5709 248.249C87.1554 248.665 87.3472 249.288 87.9226 249.416V249.4Z" fill="#F1B480"/>
<path d="M70.1016 255.649C70.8368 255.697 71.3643 255.266 72.0196 254.962C72.9146 254.531 73.8736 254.195 74.8326 253.939C75.5998 253.747 75.4399 252.597 74.6408 252.709C73.6339 252.868 72.6909 253.108 71.7319 253.476C70.9327 253.779 70.0217 254.115 69.6541 254.93C69.5262 255.234 69.766 255.617 70.1016 255.649Z" fill="#F1B480"/>
<path d="M98.4228 249.16C98.7904 249 99.0781 248.792 99.4776 248.712C99.9412 248.601 100.357 248.728 100.788 248.489C101.044 248.345 101.22 248.025 101.076 247.753C100.676 247.018 99.9891 246.97 99.2059 247.002C98.5346 247.034 97.8154 247.402 97.3998 247.913C96.8564 248.585 97.7035 249.48 98.4228 249.16Z" fill="#F1B480"/>
<path d="M81.05 255.234C81.6094 255.186 82.1209 254.866 82.6163 254.626C83.1278 254.371 83.6712 254.131 84.1827 253.843C84.9499 253.412 84.4544 252.309 83.6233 252.597C83.0798 252.788 82.5524 253.028 82.009 253.252C81.4975 253.46 80.9221 253.635 80.5226 254.019C80.0111 254.499 80.3787 255.298 81.066 255.234H81.05Z" fill="#F1B480"/>
</svg>
